<mxfile host="app.diagrams.net" agent="Mozilla/5.0 (Windows NT 10.0; Win64; x64) AppleWebKit/537.36 (KHTML, like Gecko) Chrome/138.0.0.0 Safari/537.36" version="28.0.3">
  <diagram name="Page-1" id="s7V5wRuFlJ5BzyxTIsuZ">
    <mxGraphModel dx="1507" dy="620" grid="1" gridSize="10" guides="1" tooltips="1" connect="1" arrows="1" fold="1" page="1" pageScale="1" pageWidth="827" pageHeight="1169" math="0" shadow="0">
      <root>
        <mxCell id="0" />
        <mxCell id="1" parent="0" />
        <mxCell id="PWf--cN10Qp06hCcyZ82-3" style="edgeStyle=orthogonalEdgeStyle;rounded=0;orthogonalLoop=1;jettySize=auto;html=1;exitX=1;exitY=0.5;exitDx=0;exitDy=0;entryX=0;entryY=0.5;entryDx=0;entryDy=0;" edge="1" parent="1" source="PWf--cN10Qp06hCcyZ82-1" target="PWf--cN10Qp06hCcyZ82-2">
          <mxGeometry relative="1" as="geometry" />
        </mxCell>
        <mxCell id="PWf--cN10Qp06hCcyZ82-6" style="edgeStyle=orthogonalEdgeStyle;rounded=0;orthogonalLoop=1;jettySize=auto;html=1;exitX=0.5;exitY=1;exitDx=0;exitDy=0;" edge="1" parent="1" source="PWf--cN10Qp06hCcyZ82-1" target="PWf--cN10Qp06hCcyZ82-5">
          <mxGeometry relative="1" as="geometry" />
        </mxCell>
        <mxCell id="PWf--cN10Qp06hCcyZ82-7" style="edgeStyle=orthogonalEdgeStyle;rounded=0;orthogonalLoop=1;jettySize=auto;html=1;exitX=0.5;exitY=1;exitDx=0;exitDy=0;entryX=0.5;entryY=0;entryDx=0;entryDy=0;" edge="1" parent="1" source="PWf--cN10Qp06hCcyZ82-1" target="PWf--cN10Qp06hCcyZ82-4">
          <mxGeometry relative="1" as="geometry" />
        </mxCell>
        <mxCell id="PWf--cN10Qp06hCcyZ82-1" value="Fokus critical hari ini adalah meng goal kan &lt;b&gt;POC&lt;/b&gt;" style="rounded=0;whiteSpace=wrap;html=1;" vertex="1" parent="1">
          <mxGeometry x="40" y="40" width="160" height="80" as="geometry" />
        </mxCell>
        <mxCell id="PWf--cN10Qp06hCcyZ82-2" value="Investor baru mau chip in kalau udah ada market, dan teknologinya udah TKT-7" style="rounded=0;whiteSpace=wrap;html=1;" vertex="1" parent="1">
          <mxGeometry x="280" y="40" width="160" height="80" as="geometry" />
        </mxCell>
        <mxCell id="PWf--cN10Qp06hCcyZ82-12" style="edgeStyle=orthogonalEdgeStyle;rounded=0;orthogonalLoop=1;jettySize=auto;html=1;exitX=0.5;exitY=1;exitDx=0;exitDy=0;entryX=0.5;entryY=0;entryDx=0;entryDy=0;" edge="1" parent="1" source="PWf--cN10Qp06hCcyZ82-4" target="PWf--cN10Qp06hCcyZ82-10">
          <mxGeometry relative="1" as="geometry" />
        </mxCell>
        <mxCell id="PWf--cN10Qp06hCcyZ82-4" value="Kerjasama riset pemerintah (yang di indonesia yang dikejar)" style="rounded=0;whiteSpace=wrap;html=1;" vertex="1" parent="1">
          <mxGeometry x="40" y="240" width="160" height="80" as="geometry" />
        </mxCell>
        <mxCell id="PWf--cN10Qp06hCcyZ82-11" style="edgeStyle=orthogonalEdgeStyle;rounded=0;orthogonalLoop=1;jettySize=auto;html=1;exitX=0.5;exitY=1;exitDx=0;exitDy=0;entryX=0.5;entryY=0;entryDx=0;entryDy=0;" edge="1" parent="1" source="PWf--cN10Qp06hCcyZ82-5" target="PWf--cN10Qp06hCcyZ82-10">
          <mxGeometry relative="1" as="geometry" />
        </mxCell>
        <mxCell id="PWf--cN10Qp06hCcyZ82-26" style="edgeStyle=orthogonalEdgeStyle;rounded=0;orthogonalLoop=1;jettySize=auto;html=1;exitX=1;exitY=0.5;exitDx=0;exitDy=0;entryX=0;entryY=0.5;entryDx=0;entryDy=0;" edge="1" parent="1" source="PWf--cN10Qp06hCcyZ82-5" target="PWf--cN10Qp06hCcyZ82-25">
          <mxGeometry relative="1" as="geometry" />
        </mxCell>
        <mxCell id="PWf--cN10Qp06hCcyZ82-5" value="CSR dari perusahaan&amp;nbsp;&lt;div&gt;(ini paling feasibel)&lt;/div&gt;" style="rounded=0;whiteSpace=wrap;html=1;" vertex="1" parent="1">
          <mxGeometry x="280" y="240" width="160" height="80" as="geometry" />
        </mxCell>
        <mxCell id="PWf--cN10Qp06hCcyZ82-8" value="karena" style="text;html=1;align=center;verticalAlign=middle;whiteSpace=wrap;rounded=0;" vertex="1" parent="1">
          <mxGeometry x="210" y="50" width="60" height="30" as="geometry" />
        </mxCell>
        <mxCell id="PWf--cN10Qp06hCcyZ82-9" value="caranya" style="text;html=1;align=center;verticalAlign=middle;whiteSpace=wrap;rounded=0;" vertex="1" parent="1">
          <mxGeometry x="50" y="160" width="60" height="30" as="geometry" />
        </mxCell>
        <mxCell id="PWf--cN10Qp06hCcyZ82-19" style="edgeStyle=orthogonalEdgeStyle;rounded=0;orthogonalLoop=1;jettySize=auto;html=1;exitX=0.5;exitY=1;exitDx=0;exitDy=0;entryX=0.5;entryY=0;entryDx=0;entryDy=0;" edge="1" parent="1" source="PWf--cN10Qp06hCcyZ82-10" target="PWf--cN10Qp06hCcyZ82-18">
          <mxGeometry relative="1" as="geometry" />
        </mxCell>
        <mxCell id="PWf--cN10Qp06hCcyZ82-20" style="edgeStyle=orthogonalEdgeStyle;rounded=0;orthogonalLoop=1;jettySize=auto;html=1;exitX=1;exitY=0.5;exitDx=0;exitDy=0;entryX=0.5;entryY=0;entryDx=0;entryDy=0;" edge="1" parent="1" source="PWf--cN10Qp06hCcyZ82-10" target="PWf--cN10Qp06hCcyZ82-14">
          <mxGeometry relative="1" as="geometry" />
        </mxCell>
        <mxCell id="PWf--cN10Qp06hCcyZ82-10" value="Mematangkan POC" style="rounded=0;whiteSpace=wrap;html=1;" vertex="1" parent="1">
          <mxGeometry x="40" y="440" width="160" height="80" as="geometry" />
        </mxCell>
        <mxCell id="PWf--cN10Qp06hCcyZ82-14" value="Crowdfunding" style="rounded=0;whiteSpace=wrap;html=1;" vertex="1" parent="1">
          <mxGeometry x="280" y="640" width="160" height="80" as="geometry" />
        </mxCell>
        <mxCell id="PWf--cN10Qp06hCcyZ82-18" value="Cari funding dari investor" style="rounded=0;whiteSpace=wrap;html=1;" vertex="1" parent="1">
          <mxGeometry x="40" y="640" width="160" height="80" as="geometry" />
        </mxCell>
        <mxCell id="PWf--cN10Qp06hCcyZ82-21" value="caranya" style="text;html=1;align=center;verticalAlign=middle;whiteSpace=wrap;rounded=0;" vertex="1" parent="1">
          <mxGeometry x="210" y="190" width="60" height="30" as="geometry" />
        </mxCell>
        <mxCell id="PWf--cN10Qp06hCcyZ82-22" value="untuk" style="text;html=1;align=center;verticalAlign=middle;whiteSpace=wrap;rounded=0;" vertex="1" parent="1">
          <mxGeometry x="60" y="360" width="60" height="30" as="geometry" />
        </mxCell>
        <mxCell id="PWf--cN10Qp06hCcyZ82-23" value="kemudian" style="text;html=1;align=center;verticalAlign=middle;whiteSpace=wrap;rounded=0;" vertex="1" parent="1">
          <mxGeometry x="250" y="440" width="60" height="30" as="geometry" />
        </mxCell>
        <mxCell id="PWf--cN10Qp06hCcyZ82-24" value="kemudian" style="text;html=1;align=center;verticalAlign=middle;whiteSpace=wrap;rounded=0;" vertex="1" parent="1">
          <mxGeometry x="130" y="560" width="60" height="30" as="geometry" />
        </mxCell>
        <mxCell id="PWf--cN10Qp06hCcyZ82-25" value="Akan coba dikenalkan via Inspira (dikenalkan sebagai bagian dari Biosphere+)" style="rounded=0;whiteSpace=wrap;html=1;" vertex="1" parent="1">
          <mxGeometry x="520" y="240" width="160" height="80" as="geometry" />
        </mxCell>
      </root>
    </mxGraphModel>
  </diagram>
</mxfile>
